<svg width="70" height="70" viewBox="0 0 70 70" fill="none" xmlns="http://www.w3.org/2000/svg">
<rect width="70" height="70" fill="none"/>
<path d="M19.1631 20L27.458 43.0508C27.458 43.0508 32.7163 28.1113 33.3076 26.5029C33.8534 25.0182 34.8395 20.7342 34.9883 20.083L35.0175 20H38.8896C38.8857 20.0362 38.3442 24.9696 37.7822 26.5029C37.2181 28.0414 29.1465 50 29.1465 50H25.2715L13.9785 20H19.1631ZM56.1006 20L44.789 31.9717L57.1679 50H51.5898L41.665 35.2783L40.414 36.6289V50H36.8789V41.6084C36.8789 38.6014 36.9909 36.4634 37.1562 35.4541C37.3241 34.4294 37.8133 33.6251 38.2422 33.1924L38.3457 33.0859C39.6054 31.7876 46.8793 24.0125 50.5009 20H56.1006Z" fill="#ED0077"/>
<path d="M1 34.6954L13.678 27.9059V29.8688L2.99326 35.4278V35.4864L13.678 41.06V43.0229L1 36.2335V34.6954Z" fill="#ED0077"/>
<path d="M69 36.262L56.322 43.0229V41.0619L67.0913 35.4937V35.4352L56.322 29.8669V27.9059L69 34.6669V36.262Z" fill="#ED0077"/>
</svg>
